<svg xmlns="http://www.w3.org/2000/svg" viewBox="0 0 32 32">
  <rect width="32" height="32" rx="6" fill="#6366f1"/>
  <g transform="translate(2, 2) scale(0.0273)">
    <g transform="matrix(1,0,0,1,0.5,0.5)">
      <g transform="matrix(1.368459,0,0,1.379973,-42.267578,-31.543674)">
        <g transform="matrix(1.13937,0,0,1.13937,-415.353206,-426.46979)">
          <path d="M391.95,707.51C408.917,461.144 639.774,347.531 827.578,412.274C885.867,432.368 851.255,501.704 811.705,484.044C740.218,452.123 641.959,462.109 570.86,512.975C416.302,623.551 438.983,846.346 580.678,933.224C798.743,1066.925 1057.705,850.186 951.871,612.334C937.254,579.483 977.354,547.21 1006.2,566.929C1022.733,578.23 1058.433,670.741 1045.732,762.527C1010.229,1019.107 710.098,1126.014 520.849,979.051C379.419,869.223 391.916,718.193 391.95,707.51Z" fill="white"/>
        </g>
        <g transform="matrix(1.13937,0,0,1.13937,-415.353206,-426.46979)">
          <g>
            <path d="M862.272,530.31C893.561,497.385 905.074,544.671 931.207,528.024C935.027,525.591 954.343,499.826 951.12,519.416C945.48,553.703 901.542,553.091 889.961,567.886C873.271,589.208 897.628,606.813 898.379,607.607C906.854,616.556 902.348,631.436 886.506,631.674C859.618,632.078 857.747,631.513 839.787,651.738C837.2,650.5 837.347,650.676 837.2,650.5C835.601,648.578 839.1,647.022 825.33,621.598C820.04,611.832 820.088,611.687 820.475,605.554C835.033,610.251 839.889,606.29 846.252,600.287C865.048,568.611 843.436,561.741 862.272,530.31Z" fill="white"/>
            <path d="M820.475,605.554C820.088,611.687 820.04,611.832 825.33,621.598C839.1,647.022 835.601,648.578 837.2,650.5C837.347,650.676 837.2,650.5 839.787,651.738C837.922,653.654 822.829,669.169 809.444,665.74C807.373,665.209 793.458,661.643 790.99,646.405C787.929,627.496 788.089,627.055 775.88,612.176C755.95,587.888 776.338,567.703 786.473,567.092C809.614,565.697 795.004,590.208 820.475,605.554Z" fill="white"/>
          </g>
          <path d="M987.416,473.291C1003.39,470.575 1010.127,482.73 1000.651,494.664C997.207,496.99 997.31,496.814 993.451,498.047C993.499,496.098 995.984,492.4 995.066,491.575C987.371,484.665 994.318,480.948 987.416,473.291Z" fill="white"/>
          <path d="M987.416,473.291C994.318,480.948 987.371,484.665 995.066,491.575C995.984,492.4 993.499,496.098 993.451,498.047C976.444,496.289 974.08,481.899 987.416,473.291Z" fill="white"/>
          <path d="M1031.486,471.882C1030.332,471.62 1018.279,468.883 1024.778,458.702C1032.942,445.914 1051.054,469.063 1031.486,471.882Z" fill="white"/>
          <path d="M843.037,700.49C839.52,718.715 818.759,701.948 830.565,693.596C840.824,686.338 842.861,699.364 843.037,700.49Z" fill="white"/>
          <path d="M900.478,486.884C899.558,486.631 889.991,484.004 895.925,475.863C901.859,467.722 917.136,483.154 900.478,486.884Z" fill="white"/>
        </g>
      </g>
    </g>
  </g>
</svg>
