<?xml version="1.0" encoding="UTF-8" standalone="no"?>
<!DOCTYPE svg PUBLIC "-//W3C//DTD SVG 1.1//EN" "http://www.w3.org/Graphics/SVG/1.1/DTD/svg11.dtd">
<svg width="100%" height="100%" viewBox="0 0 1025 1025" version="1.1" xmlns="http://www.w3.org/2000/svg" xmlns:xlink="http://www.w3.org/1999/xlink" xml:space="preserve" xmlns:serif="http://www.serif.com/" style="fill-rule:evenodd;clip-rule:evenodd;stroke-linejoin:round;stroke-miterlimit:2;">
    <g transform="matrix(1,0,0,1,0.5,0.5)">
        <g transform="matrix(1.368459,0,0,1.379973,-42.267578,-31.543674)">
            <g transform="matrix(1.13937,0,0,1.13937,-415.353206,-426.46979)">
                <path d="M391.95,707.51C408.917,461.144 639.774,347.531 827.578,412.274C885.867,432.368 851.255,501.704 811.705,484.044C740.218,452.123 641.959,462.109 570.86,512.975C416.302,623.551 438.983,846.346 580.678,933.224C798.743,1066.925 1057.705,850.186 951.871,612.334C937.254,579.483 977.354,547.21 1006.2,566.929C1022.733,578.23 1058.433,670.741 1045.732,762.527C1010.229,1019.107 710.098,1126.014 520.849,979.051C379.419,869.223 391.916,718.193 391.95,707.51Z" style="fill:white;stroke:white;stroke-width:0.64px;"/>
            </g>
        </g>
    </g>
</svg>
